<?xml version="1.0" standalone="no"?>
<!DOCTYPE svg PUBLIC "-//W3C//DTD SVG 20010904//EN"
 "http://www.w3.org/TR/2001/REC-SVG-20010904/DTD/svg10.dtd">
<svg version="1.0" xmlns="http://www.w3.org/2000/svg"
 width="128.000000pt" height="128.000000pt" viewBox="0 0 128.000000 128.000000"
 preserveAspectRatio="xMidYMid meet">

<g transform="translate(0.000000,128.000000) scale(0.100000,-0.100000)"
fill="#000000" stroke="none">
<path d="M397 1099 c-3 -12 -10 -18 -16 -14 -6 3 -11 2 -11 -4 0 -5 -19 -12
-42 -16 -67 -11 -108 -42 -129 -97 -6 -16 -14 -26 -18 -24 -4 3 -13 -10 -20
-27 -8 -18 -21 -41 -30 -51 -9 -11 -10 -16 -4 -12 9 5 11 2 7 -8 -3 -9 -10
-14 -14 -11 -12 7 -20 -21 -20 -71 0 -28 -4 -43 -10 -39 -5 3 -10 1 -10 -4 0
-6 4 -11 10 -11 6 0 6 -9 0 -25 -9 -23 -6 -29 13 -26 4 1 5 -10 3 -24 -3 -14
-2 -25 2 -25 11 0 32 -52 25 -63 -4 -6 -1 -7 7 -2 10 6 12 1 8 -19 -3 -16 0
-33 9 -42 8 -8 11 -14 6 -14 -4 0 10 -16 32 -36 44 -39 128 -84 160 -84 11 0
27 -5 35 -10 13 -8 13 -10 -2 -10 -14 0 -16 -9 -15 -49 1 -27 0 -48 -2 -45 -2
2 -10 -1 -18 -7 -9 -9 -13 -8 -13 0 0 6 -7 11 -16 11 -10 0 -14 -6 -11 -14 3
-8 -9 -26 -27 -42 -17 -16 -38 -38 -46 -49 -26 -35 -46 -45 -106 -51 -32 -4
-61 -9 -64 -13 -3 -3 -18 -6 -35 -6 -27 0 -30 -4 -33 -33 l-3 -32 640 0 641 0
0 31 c0 28 -2 30 -32 29 -84 -5 -149 0 -142 11 4 8 0 8 -15 0 -14 -8 -21 -8
-21 -1 0 14 -83 13 -99 -3 -8 -6 -11 -7 -8 -1 7 12 -35 57 -46 49 -4 -3 -5 -2
-2 2 3 3 -4 12 -15 20 -11 8 -20 21 -20 30 0 9 -6 13 -14 10 -9 -4 -19 5 -26
23 -7 16 -18 34 -25 40 -8 6 -11 18 -8 26 3 8 1 14 -5 14 -8 0 -23 47 -21 68
1 4 23 14 50 22 57 18 105 61 114 101 4 16 11 31 16 34 5 4 9 15 9 25 0 10 5
20 10 22 6 2 13 26 16 53 3 28 12 57 20 66 20 22 18 69 -2 69 -9 0 -14 6 -11
13 2 6 -4 27 -14 46 -10 19 -16 38 -13 43 3 5 0 15 -6 23 -7 8 -9 15 -4 15 5
0 2 5 -7 10 -9 5 -16 24 -17 46 -1 21 -5 40 -9 43 -17 12 -45 64 -32 56 8 -4
-1 6 -20 22 -18 17 -39 30 -45 31 -6 0 -31 6 -56 12 -72 19 -80 19 -80 8 0 -6
-11 -8 -25 -6 -14 3 -28 2 -30 -2 -3 -5 -14 -6 -25 -3 -11 3 -18 8 -16 12 2 3
-9 7 -25 8 -16 1 -29 -2 -29 -8 0 -6 -6 -7 -12 -2 -7 4 -24 6 -38 5 -14 -2
-37 -4 -52 -6 -16 -2 -28 1 -28 5 0 18 -18 8 -23 -12z m466 -69 c9 -11 17 -29
17 -40 0 -18 -3 -18 -42 10 -22 16 -47 30 -55 30 -7 0 -13 5 -13 10 0 19 75
11 93 -10z m-452 -26 c40 -36 9 -96 -74 -144 -58 -33 -79 -37 -96 -16 -20 23
-16 95 6 125 41 55 122 73 164 35z m326 7 c-1 -11 -6 -17 -14 -14 -10 4 -11 9
-2 19 15 19 18 18 16 -5z m274 -324 c-10 -9 -11 -8 -5 6 3 10 9 15 12 12 3 -3
0 -11 -7 -18z"/>
<path d="M350 1003 c-30 -12 -100 -64 -110 -83 -9 -16 -6 -25 15 -46 l26 -26
27 25 c15 13 46 37 69 52 42 27 45 40 20 73 -10 13 -22 14 -47 5z"/>
<path d="M815 1110 c3 -5 8 -10 11 -10 2 0 4 5 4 10 0 6 -5 10 -11 10 -5 0 -7
-4 -4 -10z"/>
</g>
</svg>
